<?xml version="1.0" encoding="utf-8"?>
<!-- Generator: Adobe Illustrator 15.0.0, SVG Export Plug-In . SVG Version: 6.00 Build 0)  -->
<!DOCTYPE svg PUBLIC "-//W3C//DTD SVG 1.1//EN" "http://www.w3.org/Graphics/SVG/1.1/DTD/svg11.dtd">
<svg version="1.1" id="Layer_1" xmlns="http://www.w3.org/2000/svg" xmlns:xlink="http://www.w3.org/1999/xlink" x="0px" y="0px"
	 width="792px" height="612px" viewBox="0 0 792 612" enable-background="new 0 0 792 612" xml:space="preserve">
<linearGradient id="SVGID_1_" gradientUnits="userSpaceOnUse" x1="307.481" y1="292.8198" x2="413.7764" y2="292.8198">
	<stop  offset="0" style="stop-color:#00A14B"/>
	<stop  offset="0.0228" style="stop-color:#12A24B"/>
	<stop  offset="0.2086" style="stop-color:#59AA47"/>
	<stop  offset="0.3983" style="stop-color:#78B143"/>
	<stop  offset="0.5911" style="stop-color:#8BB63F"/>
	<stop  offset="0.7891" style="stop-color:#95B93D"/>
	<stop  offset="1" style="stop-color:#99BA3C"/>
</linearGradient>
<path fill="url(#SVGID_1_)" stroke="#FFFFFF" stroke-width="3" stroke-miterlimit="10" d="M324.852,251.133
	c-0.734,9.525,2.473,19.105,0,30.11c-0.815,3.627-5.616,7.971-8.686,11.581c-2.009,2.362-8.758,8.064-8.685,11.581
	c0.136,6.584,10.721,4.357,12.739,11.58c1.444,5.169-1.679,8.232-2.316,13.318c3.608,4.283,15.259,2.524,15.055,8.106
	c-0.185,5.07-8.133,3.037-12.739,5.211c-2.108,1.612,1.515,2.979,2.316,4.054c3.012,4.038,4.173,9.433,2.895,17.371
	c7.242,11.866,29.146,9.069,46.901,10.422c0.221,2.803,0.463,6.327,0.625,10.153c24.968-21.189,40.818-52.794,40.818-88.106
	c0-39.691-20.022-74.702-50.513-95.496C342.462,209.79,326.753,226.46,324.852,251.133z"/>
<path fill="#2E3192" stroke="#FFFFFF" stroke-width="3" stroke-miterlimit="10" d="M367.123,379.68
	c-19.67-0.835-44.655,0.771-47.481-15.634c-0.716-4.155,1.312-7.122,0.579-10.423c-0.883-3.973-7.029-5.542-6.949-10.422
	c0.072-4.416,2.704-4.969,6.37-6.371c-8.712-2.247-7.368-10.032-5.211-18.528c-4.301-4.191-11.405-5.58-12.739-12.739
	c0-0.772,0-1.544,0-2.315c2.27-9.146,16.492-16.745,17.95-24.319c1.533-7.958-1.079-17.237-0.579-25.478
	c1.635-26.983,16.789-45.832,38.032-56.355c-17.232-10.218-37.343-16.092-58.829-16.092c-10.419,0-20.513,1.388-30.115,3.974
	c6.149,9.161,10.024,20.197,10.806,33.095c0.5,8.241-2.111,17.521-0.579,25.479c1.458,7.574,15.68,15.174,17.95,24.318
	c0,0.772,0,1.545,0,2.316c-1.334,7.158-8.437,8.548-12.738,12.739c2.156,8.495,3.5,16.28-5.212,18.529
	c3.666,1.401,6.297,1.954,6.369,6.369c0.08,4.881-6.065,6.449-6.948,10.423c-0.733,3.3,1.295,6.268,0.579,10.422
	c-2.827,16.405-27.812,14.8-47.481,15.635c-0.126,2.721-0.024,25.178,0.045,46.08c18.955,13.619,42.202,21.644,67.324,21.644
	c25.769,0,49.563-8.441,68.778-22.704C367.098,385.888,367.273,382.943,367.123,379.68z"/>
<linearGradient id="SVGID_2_" gradientUnits="userSpaceOnUse" x1="182.7529" y1="286.2217" x2="290.5366" y2="286.2217">
	<stop  offset="0" style="stop-color:#00A14B"/>
	<stop  offset="0.0228" style="stop-color:#12A24B"/>
	<stop  offset="0.2086" style="stop-color:#59AA47"/>
	<stop  offset="0.3983" style="stop-color:#78B143"/>
	<stop  offset="0.5911" style="stop-color:#8BB63F"/>
	<stop  offset="0.7891" style="stop-color:#95B93D"/>
	<stop  offset="1" style="stop-color:#99BA3C"/>
</linearGradient>
<path fill="url(#SVGID_2_)" stroke="#FFFFFF" stroke-width="3" stroke-miterlimit="10" d="M272.586,328.668
	c-1.279-7.938-0.118-13.332,2.895-17.371c0.801-1.074,4.424-2.441,2.316-4.053c-4.606-2.174-12.554-0.142-12.739-5.211
	c-0.204-5.582,11.447-3.823,15.055-8.107c-0.637-5.085-3.76-8.149-2.316-13.317c2.018-7.223,12.603-4.996,12.739-11.581
	c0.073-3.516-6.676-9.218-8.686-11.58c-3.07-3.609-7.87-7.954-8.685-11.58c-2.474-11.006,0.733-20.586,0-30.111
	c-0.879-11.412-4.714-21.11-10.639-29.109c-46.301,15.051-79.773,58.546-79.773,109.868c0,35.97,16.442,68.097,42.218,89.282
	c0.151-21.722,0.446-43.33,0.713-46.706C243.439,337.737,265.344,340.535,272.586,328.668z"/>
<g>
	<path fill="#FFFFFF" d="M347.609,357.285v-72.383h26.348c8.076,0,14.285,1.48,18.625,4.441c4.341,2.962,6.511,7.135,6.511,12.519
		c0,3.904-1.32,7.319-3.962,10.246c-2.642,2.928-6.015,4.965-10.12,6.108v0.201c5.148,0.64,9.262,2.542,12.341,5.704
		c3.079,3.164,4.618,7.017,4.618,11.56c0,6.63-2.372,11.887-7.116,15.773c-4.745,3.887-11.223,5.83-19.433,5.83H347.609z
		 M363.913,296.915v17.162h7.167c3.364,0,6.014-0.815,7.95-2.448c1.935-1.632,2.902-3.878,2.902-6.738
		c0-5.316-3.971-7.976-11.912-7.976H363.913z M363.913,326.191v19.08h8.833c3.769,0,6.721-0.874,8.858-2.624
		c2.137-1.75,3.205-4.14,3.205-7.168c0-2.894-1.052-5.165-3.154-6.814c-2.104-1.648-5.04-2.474-8.808-2.474H363.913z"/>
	<path fill="#2E3192" d="M453.587,335.984H419.87c0.537,7.504,5.266,11.256,14.184,11.256c5.686,0,10.683-1.346,14.991-4.038v11.509
		c-4.779,2.558-10.987,3.836-18.626,3.836c-8.346,0-14.823-2.313-19.433-6.94c-4.61-4.626-6.915-11.079-6.915-19.357
		c0-8.581,2.489-15.378,7.47-20.393c4.98-5.014,11.104-7.521,18.373-7.521c7.538,0,13.367,2.238,17.49,6.713
		c4.121,4.476,6.183,10.55,6.183,18.222V335.984z M438.798,326.191c0-7.402-2.995-11.104-8.984-11.104
		c-2.558,0-4.77,1.06-6.638,3.18c-1.867,2.12-3.003,4.763-3.407,7.925H438.798z"/>
	<path fill="#2E3192" d="M473.354,339.77c0,2.188,0.521,3.846,1.564,4.973s2.439,1.69,4.189,1.69c0.875,0,1.749-0.083,2.625-0.252
		c0.874-0.168,1.749-0.336,2.624-0.505v11.205c-1.918,0.505-3.945,0.917-6.082,1.237c-2.137,0.319-4.366,0.479-6.688,0.479
		c-2.12,0-4.047-0.354-5.779-1.061c-1.734-0.706-3.214-1.724-4.442-3.054c-1.229-1.329-2.179-2.936-2.852-4.82
		c-0.674-1.884-1.01-4.004-1.01-6.36v-62.54h15.85V339.77z"/>
	<path fill="#2E3192" d="M493.624,297.42c-2.692,0-4.896-0.799-6.612-2.397c-1.716-1.598-2.574-3.559-2.574-5.88
		c0-2.39,0.858-4.342,2.574-5.855c1.717-1.515,3.92-2.271,6.612-2.271c2.726,0,4.938,0.757,6.638,2.271
		c1.699,1.514,2.549,3.466,2.549,5.855c0,2.423-0.85,4.408-2.549,5.956S496.35,297.42,493.624,297.42z M501.347,339.77
		c0,2.188,0.521,3.846,1.564,4.973s2.439,1.69,4.189,1.69c0.875,0,1.75-0.083,2.625-0.252c0.875-0.168,1.749-0.336,2.625-0.505
		v11.205c-1.918,0.505-3.946,0.917-6.082,1.237c-2.138,0.319-4.366,0.479-6.688,0.479c-2.12,0-4.047-0.354-5.779-1.061
		c-1.733-0.706-3.214-1.724-4.441-3.054c-1.229-1.329-2.18-2.936-2.853-4.82c-0.673-1.884-1.009-4.004-1.009-6.36v-37.705h15.849
		V339.77z"/>
	<path fill="#2E3192" d="M560.332,335.984h-33.717c0.537,7.504,5.266,11.256,14.184,11.256c5.686,0,10.683-1.346,14.99-4.038v11.509
		c-4.778,2.558-10.986,3.836-18.625,3.836c-8.346,0-14.823-2.313-19.433-6.94c-4.61-4.626-6.915-11.079-6.915-19.357
		c0-8.581,2.489-15.378,7.47-20.393c4.98-5.014,11.104-7.521,18.373-7.521c7.538,0,13.367,2.238,17.489,6.713
		c4.122,4.476,6.184,10.55,6.184,18.222V335.984z M545.543,326.191c0-7.402-2.995-11.104-8.984-11.104
		c-2.558,0-4.77,1.06-6.638,3.18c-1.867,2.12-3.003,4.763-3.407,7.925H545.543z"/>
	<path fill="#2E3192" d="M613.866,305.598l-19.231,51.688h-18.171l-18.322-51.688h17.061l8.984,31.851
		c1.01,3.601,1.598,6.663,1.767,9.187h0.202c0.235-2.389,0.858-5.351,1.867-8.884l9.187-32.153H613.866z"/>
	<path fill="#2E3192" d="M661.949,335.984h-33.718c0.538,7.504,5.267,11.256,14.184,11.256c5.687,0,10.684-1.346,14.991-4.038
		v11.509c-4.778,2.558-10.986,3.836-18.625,3.836c-8.346,0-14.823-2.313-19.433-6.94c-4.611-4.626-6.916-11.079-6.916-19.357
		c0-8.581,2.49-15.378,7.471-20.393c4.979-5.014,11.104-7.521,18.373-7.521c7.537,0,13.367,2.238,17.489,6.713
		c4.122,4.476,6.184,10.55,6.184,18.222V335.984z M647.16,326.191c0-7.402-2.995-11.104-8.984-11.104
		c-2.558,0-4.771,1.06-6.638,3.18c-1.868,2.12-3.004,4.763-3.407,7.925H647.16z"/>
</g>
<g>
	<path fill="#39B54A" d="M405.084,398.883v-29.452h3.007v26.384h14.051v3.068H405.084z"/>
	<path fill="#39B54A" d="M434.712,398.883v-29.452h3.006v29.452H434.712z"/>
	<path fill="#39B54A" d="M450.697,398.883v-29.452h16.28v3.027h-13.274v9.715h9.307v3.048h-9.307v13.662H450.697z"/>
	<path fill="#39B54A" d="M479.751,398.883v-29.452h16.28v3.027h-13.273v9.715h9.306v3.048h-9.306v10.655h13.273v3.007H479.751z"/>
	<path fill="#39B54A" d="M529.741,391.684V376.65c0-1.99,0.702-3.691,2.106-5.103s3.102-2.117,5.093-2.117h3.231
		c1.377,0,2.642,0.365,3.794,1.095c1.151,0.729,2.034,1.694,2.647,2.894l-2.72,1.33c-0.341-0.682-0.846-1.234-1.514-1.657
		c-0.668-0.422-1.404-0.634-2.208-0.634h-3.231c-1.159,0-2.147,0.409-2.966,1.228c-0.818,0.817-1.228,1.807-1.228,2.965v15.033
		c0,1.159,0.409,2.147,1.228,2.966c0.818,0.817,1.807,1.227,2.966,1.227h3.231c0.776,0,1.492-0.204,2.147-0.613
		c0.654-0.409,1.165-0.947,1.533-1.616l2.721,1.351c-0.614,1.173-1.493,2.113-2.639,2.822s-2.399,1.063-3.763,1.063h-3.231
		c-1.991,0-3.688-0.702-5.093-2.106S529.741,393.675,529.741,391.684z"/>
	<path fill="#39B54A" d="M557.916,391.684V376.65c0-1.99,0.701-3.691,2.104-5.103c1.403-1.411,3.099-2.117,5.087-2.117h2.309
		c1.987,0,3.683,0.706,5.086,2.117c1.402,1.411,2.104,3.112,2.104,5.103v15.033c0,1.991-0.701,3.688-2.104,5.093
		c-1.403,1.404-3.099,2.106-5.086,2.106h-2.309c-1.988,0-3.684-0.702-5.087-2.106C558.617,395.372,557.916,393.675,557.916,391.684z
		 M560.923,391.684c0,1.159,0.408,2.147,1.227,2.966c0.818,0.817,1.807,1.227,2.966,1.227h2.311c1.159,0,2.145-0.409,2.956-1.227
		c0.811-0.818,1.217-1.807,1.217-2.966V376.65c0-1.158-0.406-2.147-1.217-2.965c-0.812-0.818-1.797-1.228-2.956-1.228h-2.311
		c-1.159,0-2.147,0.409-2.966,1.228c-0.818,0.817-1.227,1.807-1.227,2.965V391.684z"/>
	<path fill="#39B54A" d="M585.702,398.883l8.221-29.452h2.926l8.222,29.452h-3.15l-2.351-8.427h-8.358l-2.359,8.427H585.702z
		 M592.019,387.572h6.745l-3.367-12.063L592.019,387.572z"/>
	<path fill="#39B54A" d="M616.168,391.684V376.65c0-1.99,0.702-3.691,2.106-5.103s3.102-2.117,5.093-2.117h3.231
		c1.377,0,2.642,0.365,3.794,1.095s2.035,1.694,2.648,2.894l-2.72,1.33c-0.342-0.682-0.846-1.234-1.514-1.657
		c-0.669-0.422-1.404-0.634-2.209-0.634h-3.231c-1.159,0-2.147,0.409-2.966,1.228c-0.818,0.817-1.227,1.807-1.227,2.965v15.033
		c0,1.159,0.408,2.147,1.227,2.966c0.818,0.817,1.807,1.227,2.966,1.227h3.231c0.777,0,1.493-0.204,2.147-0.613
		s1.166-0.947,1.534-1.616l2.72,1.351c-0.613,1.173-1.493,2.113-2.639,2.822c-1.145,0.709-2.399,1.063-3.763,1.063h-3.231
		c-1.991,0-3.688-0.702-5.093-2.106S616.168,393.675,616.168,391.684z"/>
	<path fill="#39B54A" d="M645.386,398.883v-29.452h3.007v12.742h11.023v-12.742h3.007v29.452h-3.007v-13.662h-11.023v13.662H645.386
		z"/>
</g>
</svg>
