<?xml version="1.0" encoding="utf-8"?>
<!-- Generator: Adobe Illustrator 15.0.0, SVG Export Plug-In . SVG Version: 6.00 Build 0)  -->
<!DOCTYPE svg PUBLIC "-//W3C//DTD SVG 1.1//EN" "http://www.w3.org/Graphics/SVG/1.1/DTD/svg11.dtd">
<svg version="1.1" id="Layer_1" xmlns="http://www.w3.org/2000/svg" xmlns:xlink="http://www.w3.org/1999/xlink" x="0px" y="0px"
	 width="792px" height="612px" viewBox="0 0 792 612" enable-background="new 0 0 792 612" xml:space="preserve">
<g>
	<path fill="#39B54A" d="M134.801,375.354v-35.619h3.636v31.909h16.993v3.71H134.801z"/>
	<path fill="#39B54A" d="M170.633,375.354v-35.619h3.636v35.619H170.633z"/>
	<path fill="#39B54A" d="M189.966,375.354v-35.619h19.69v3.661h-16.054v11.749h11.255v3.686h-11.255v16.523H189.966z"/>
	<path fill="#39B54A" d="M225.106,375.354v-35.619h19.69v3.661h-16.054v11.749h11.255v3.686h-11.255v12.888h16.054v3.636H225.106z"
		/>
	<path fill="#39B54A" d="M285.565,366.647v-18.181c0-2.407,0.849-4.465,2.548-6.172c1.698-1.706,3.751-2.56,6.159-2.56h3.908
		c1.666,0,3.195,0.441,4.588,1.323s2.461,2.049,3.204,3.5l-3.29,1.607c-0.412-0.824-1.022-1.492-1.831-2.003
		s-1.698-0.767-2.671-0.767h-3.908c-1.402,0-2.597,0.494-3.586,1.483c-0.99,0.989-1.484,2.186-1.484,3.587v18.181
		c0,1.402,0.495,2.598,1.484,3.587c0.989,0.989,2.185,1.484,3.586,1.484h3.908c0.94,0,1.806-0.248,2.597-0.742
		c0.792-0.495,1.41-1.146,1.855-1.954l3.29,1.632c-0.742,1.419-1.806,2.557-3.191,3.414c-1.385,0.857-2.902,1.286-4.551,1.286
		h-3.908c-2.408,0-4.461-0.85-6.159-2.548C286.414,371.108,285.565,369.056,285.565,366.647z"/>
	<path fill="#39B54A" d="M319.641,366.647v-18.181c0-2.407,0.848-4.465,2.545-6.172c1.696-1.706,3.747-2.56,6.151-2.56h2.792
		c2.404,0,4.455,0.854,6.151,2.56c1.696,1.707,2.545,3.765,2.545,6.172v18.181c0,2.408-0.849,4.461-2.545,6.159
		c-1.697,1.698-3.747,2.548-6.151,2.548h-2.792c-2.405,0-4.455-0.85-6.151-2.548C320.489,371.108,319.641,369.056,319.641,366.647z
		 M323.277,366.647c0,1.402,0.495,2.598,1.484,3.587c0.989,0.989,2.185,1.484,3.586,1.484h2.795c1.401,0,2.593-0.495,3.574-1.484
		c0.981-0.989,1.472-2.185,1.472-3.587v-18.181c0-1.401-0.491-2.598-1.472-3.587c-0.981-0.989-2.173-1.483-3.574-1.483h-2.795
		c-1.402,0-2.597,0.494-3.586,1.483c-0.99,0.989-1.484,2.186-1.484,3.587V366.647z"/>
	<path fill="#39B54A" d="M353.247,375.354l9.943-35.619h3.539l9.943,35.619h-3.81l-2.844-10.191H359.91l-2.854,10.191H353.247z
		 M360.887,361.676h8.158l-4.072-14.589L360.887,361.676z"/>
	<path fill="#39B54A" d="M390.093,366.647v-18.181c0-2.407,0.849-4.465,2.548-6.172c1.698-1.706,3.751-2.56,6.159-2.56h3.908
		c1.665,0,3.194,0.441,4.588,1.323s2.461,2.049,3.203,3.5l-3.289,1.607c-0.413-0.824-1.023-1.492-1.831-2.003
		s-1.698-0.767-2.671-0.767H398.8c-1.402,0-2.598,0.494-3.587,1.483s-1.484,2.186-1.484,3.587v18.181
		c0,1.402,0.495,2.598,1.484,3.587s2.185,1.484,3.587,1.484h3.908c0.939,0,1.806-0.248,2.597-0.742
		c0.792-0.495,1.41-1.146,1.855-1.954l3.29,1.632c-0.742,1.419-1.806,2.557-3.191,3.414c-1.385,0.857-2.902,1.286-4.551,1.286H398.8
		c-2.408,0-4.461-0.85-6.159-2.548C390.941,371.108,390.093,369.056,390.093,366.647z"/>
	<path fill="#39B54A" d="M425.431,375.354v-35.619h3.636v15.41h13.332v-15.41h3.637v35.619h-3.637v-16.523h-13.332v16.523H425.431z"
		/>
</g>
<g>
	<path fill="#2E3192" d="M582.869,352.621c4.793-2.896,8.559-6.146,11.295-9.751c2.736-3.604,4.104-7.4,4.104-11.392
		c0-1.802-0.402-3.701-1.207-5.697c-0.805-1.994-2.172-3.99-4.103-5.985c-1.932-1.994-4.538-3.958-7.82-5.89
		c-3.283-1.931-7.402-3.7-12.357-5.311c-2.896,6.566-5.617,12.455-8.159,17.669c-2.543,5.214-4.94,9.992-7.192,14.337
		c-2.254,4.345-4.393,8.399-6.42,12.165c-2.027,3.765-4.007,7.45-5.938,11.055c7.466-0.644,14.434-1.946,20.902-3.91
		C572.442,357.948,578.073,355.518,582.869,352.621z"/>
</g>
<g>
	<g>
		<defs>
			<path id="SVGID_1_" d="M505.777,366.524c1.158-0.708,2.976-1.304,5.455-1.786c2.477-0.482,6.034-0.724,10.668-0.724
				c8.045-14.739,14.69-27.436,19.937-38.088c5.245-10.652,9.639-19.421,13.179-26.31c3.539-6.887,6.517-11.972,8.931-15.254
				c2.413-3.283,4.778-4.924,7.096-4.924c1.028,0,2.027,0.161,2.993,0.482c0.965,0.323,1.818,0.758,2.559,1.304
				c0.739,0.547,1.335,1.223,1.785,2.027c0.449,0.806,0.677,1.689,0.677,2.655c-0.516,0.644-0.806,1.303-0.869,1.979
				c-0.065,0.676-0.097,1.433-0.097,2.268c5.728-2.316,10.748-4.696,15.061-7.144c4.313-2.445,7.917-4.876,10.813-7.29
				c2.896-2.413,5.084-4.745,6.565-6.999c1.48-2.252,2.221-4.312,2.221-6.179c0-0.643-0.323-1.384-0.966-2.221
				c-0.645-0.836-1.626-1.608-2.944-2.317c-1.32-0.708-2.979-1.303-4.972-1.786c-1.996-0.482-4.313-0.724-6.952-0.724
				c-7.081,0-13.646,0.854-19.695,2.558c-6.051,1.707-11.554,3.782-16.509,6.228c-4.957,2.447-9.334,5.005-13.13,7.676
				c-3.799,2.672-6.985,5.005-9.559,7c-1.609,1.224-3.01,2.43-4.2,3.62c-1.191,1.191-2.35,2.254-3.476,3.186
				c-1.126,0.935-2.333,1.689-3.62,2.27c-1.288,0.579-2.833,0.868-4.635,0.868c-2.702,0-4.812-0.643-6.323-1.931
				c-1.514-1.286-2.269-3.09-2.269-5.406c0-2.767,1.094-5.711,3.282-8.834c2.188-3.121,5.214-6.228,9.075-9.316
				c3.862-3.09,8.399-6.034,13.613-8.834c5.214-2.801,10.828-5.263,16.848-7.387c6.017-2.124,12.292-3.828,18.826-5.116
				c6.531-1.287,13.082-1.932,19.646-1.932c3.449,0,6.652,0.145,9.616,0.43c-12.058-6.814-25.984-10.708-40.822-10.708
				c-45.89,0-83.092,37.202-83.092,83.092c0,22.016,8.566,42.028,22.541,56.896c0.163-0.35,0.336-0.732,0.521-1.157
				C503.878,367.957,504.619,367.233,505.777,366.524z"/>
		</defs>
		<clipPath id="SVGID_2_">
			<use xlink:href="#SVGID_1_"  overflow="visible"/>
		</clipPath>
		<polygon clip-path="url(#SVGID_2_)" fill="#31A54A" points="481.076,229.866 480.494,239.838 480.494,229.866 		"/>
		<polygon clip-path="url(#SVGID_2_)" fill="#35A549" points="482.612,229.866 480.494,266.178 480.494,239.838 481.076,229.866 		
			"/>
		<polygon clip-path="url(#SVGID_2_)" fill="#39A549" points="484.149,229.866 480.494,292.533 480.494,266.178 482.612,229.866 		
			"/>
		<polygon clip-path="url(#SVGID_2_)" fill="#3DA649" points="485.687,229.866 480.494,318.872 480.494,292.533 484.149,229.866 		
			"/>
		<polygon clip-path="url(#SVGID_2_)" fill="#40A649" points="487.224,229.866 480.494,345.228 480.494,318.872 485.687,229.866 		
			"/>
		<polygon clip-path="url(#SVGID_2_)" fill="#43A748" points="488.761,229.866 480.595,369.854 480.494,369.854 480.494,345.228 
			487.224,229.866 		"/>
		<polygon clip-path="url(#SVGID_2_)" fill="#46A748" points="490.298,229.866 482.132,369.854 480.595,369.854 488.761,229.866 		
			"/>
		<polygon clip-path="url(#SVGID_2_)" fill="#49A848" points="491.835,229.866 483.669,369.854 482.132,369.854 490.298,229.866 		
			"/>
		<polygon clip-path="url(#SVGID_2_)" fill="#4CA848" points="493.371,229.866 485.205,369.854 483.669,369.854 491.835,229.866 		
			"/>
		<polygon clip-path="url(#SVGID_2_)" fill="#4FA848" points="494.909,229.866 486.743,369.854 485.205,369.854 493.371,229.866 		
			"/>
		<polygon clip-path="url(#SVGID_2_)" fill="#51A947" points="496.445,229.866 488.28,369.854 486.743,369.854 494.909,229.866 		
			"/>
		<polygon clip-path="url(#SVGID_2_)" fill="#54A947" points="497.982,229.866 489.816,369.854 488.28,369.854 496.445,229.866 		
			"/>
		<polygon clip-path="url(#SVGID_2_)" fill="#56A947" points="499.521,229.866 491.354,369.854 489.816,369.854 497.982,229.866 		
			"/>
		<polygon clip-path="url(#SVGID_2_)" fill="#59AA47" points="501.057,229.866 492.891,369.854 491.354,369.854 499.521,229.866 		
			"/>
		<polygon clip-path="url(#SVGID_2_)" fill="#5BAA46" points="502.594,229.866 494.428,369.854 492.891,369.854 501.057,229.866 		
			"/>
		<polygon clip-path="url(#SVGID_2_)" fill="#5DAB46" points="504.131,229.866 495.965,369.854 494.428,369.854 502.594,229.866 		
			"/>
		<polygon clip-path="url(#SVGID_2_)" fill="#5FAB46" points="505.668,229.866 497.502,369.854 495.965,369.854 504.131,229.866 		
			"/>
		<polygon clip-path="url(#SVGID_2_)" fill="#61AC46" points="507.204,229.866 499.039,369.854 497.502,369.854 505.668,229.866 		
			"/>
		<polygon clip-path="url(#SVGID_2_)" fill="#62AC46" points="508.742,229.866 500.576,369.854 499.039,369.854 507.204,229.866 		
			"/>
		<polygon clip-path="url(#SVGID_2_)" fill="#64AC45" points="510.279,229.866 502.113,369.854 500.576,369.854 508.742,229.866 		
			"/>
		<polygon clip-path="url(#SVGID_2_)" fill="#66AD45" points="511.815,229.866 503.649,369.854 502.113,369.854 510.279,229.866 		
			"/>
		<polygon clip-path="url(#SVGID_2_)" fill="#68AD45" points="513.354,229.866 505.188,369.854 503.649,369.854 511.815,229.866 		
			"/>
		<polygon clip-path="url(#SVGID_2_)" fill="#69AD45" points="514.89,229.866 506.724,369.854 505.188,369.854 513.354,229.866 		
			"/>
		<polygon clip-path="url(#SVGID_2_)" fill="#6BAE44" points="516.427,229.866 508.261,369.854 506.724,369.854 514.89,229.866 		
			"/>
		<polygon clip-path="url(#SVGID_2_)" fill="#6DAE44" points="517.964,229.866 509.799,369.854 508.261,369.854 516.427,229.866 		
			"/>
		<polygon clip-path="url(#SVGID_2_)" fill="#6EAE44" points="519.501,229.866 511.335,369.854 509.799,369.854 517.964,229.866 		
			"/>
		<polygon clip-path="url(#SVGID_2_)" fill="#70AF44" points="521.038,229.866 512.872,369.854 511.335,369.854 519.501,229.866 		
			"/>
		<polygon clip-path="url(#SVGID_2_)" fill="#71AF44" points="522.575,229.866 514.409,369.854 512.872,369.854 521.038,229.866 		
			"/>
		<polygon clip-path="url(#SVGID_2_)" fill="#72AF43" points="524.112,229.866 515.946,369.854 514.409,369.854 522.575,229.866 		
			"/>
		<polygon clip-path="url(#SVGID_2_)" fill="#74B043" points="525.648,229.866 517.482,369.854 515.946,369.854 524.112,229.866 		
			"/>
		<polygon clip-path="url(#SVGID_2_)" fill="#75B043" points="527.187,229.866 519.021,369.854 517.482,369.854 525.648,229.866 		
			"/>
		<polygon clip-path="url(#SVGID_2_)" fill="#77B043" points="528.724,229.866 520.558,369.854 519.021,369.854 527.187,229.866 		
			"/>
		<polygon clip-path="url(#SVGID_2_)" fill="#78B143" points="530.26,229.866 522.094,369.854 520.558,369.854 528.724,229.866 		
			"/>
		<polygon clip-path="url(#SVGID_2_)" fill="#79B142" points="531.798,229.866 523.632,369.854 522.094,369.854 530.26,229.866 		
			"/>
		<polygon clip-path="url(#SVGID_2_)" fill="#7AB142" points="533.334,229.866 525.168,369.854 523.632,369.854 531.798,229.866 		
			"/>
		<polygon clip-path="url(#SVGID_2_)" fill="#7CB242" points="534.872,229.866 526.705,369.854 525.168,369.854 533.334,229.866 		
			"/>
		<polygon clip-path="url(#SVGID_2_)" fill="#7DB242" points="536.408,229.866 528.243,369.854 526.705,369.854 534.872,229.866 		
			"/>
		<polygon clip-path="url(#SVGID_2_)" fill="#7EB242" points="537.945,229.866 529.779,369.854 528.243,369.854 536.408,229.866 		
			"/>
		<polygon clip-path="url(#SVGID_2_)" fill="#7FB241" points="539.483,229.866 531.316,369.854 529.779,369.854 537.945,229.866 		
			"/>
		<polygon clip-path="url(#SVGID_2_)" fill="#80B341" points="541.02,229.866 532.854,369.854 531.316,369.854 539.483,229.866 		
			"/>
		<polygon clip-path="url(#SVGID_2_)" fill="#81B341" points="542.557,229.866 534.391,369.854 532.854,369.854 541.02,229.866 		
			"/>
		<polygon clip-path="url(#SVGID_2_)" fill="#82B341" points="544.094,229.866 535.928,369.854 534.391,369.854 542.557,229.866 		
			"/>
		<polygon clip-path="url(#SVGID_2_)" fill="#83B341" points="545.631,229.866 537.465,369.854 535.928,369.854 544.094,229.866 		
			"/>
		<polygon clip-path="url(#SVGID_2_)" fill="#84B441" points="547.167,229.866 539.002,369.854 537.465,369.854 545.631,229.866 		
			"/>
		<polygon clip-path="url(#SVGID_2_)" fill="#85B440" points="548.705,229.866 540.538,369.854 539.002,369.854 547.167,229.866 		
			"/>
		<polygon clip-path="url(#SVGID_2_)" fill="#86B440" points="550.242,229.866 542.076,369.854 540.538,369.854 548.705,229.866 		
			"/>
		<polygon clip-path="url(#SVGID_2_)" fill="#87B440" points="551.778,229.866 543.612,369.854 542.076,369.854 550.242,229.866 		
			"/>
		<polygon clip-path="url(#SVGID_2_)" fill="#87B540" points="553.316,229.866 545.15,369.854 543.612,369.854 551.778,229.866 		
			"/>
		<polygon clip-path="url(#SVGID_2_)" fill="#88B540" points="554.853,229.866 546.687,369.854 545.15,369.854 553.316,229.866 		
			"/>
		<polygon clip-path="url(#SVGID_2_)" fill="#89B540" points="556.39,229.866 548.224,369.854 546.687,369.854 554.853,229.866 		
			"/>
		<polygon clip-path="url(#SVGID_2_)" fill="#8AB53F" points="557.927,229.866 549.761,369.854 548.224,369.854 556.39,229.866 		
			"/>
		<polygon clip-path="url(#SVGID_2_)" fill="#8BB63F" points="559.464,229.866 551.298,369.854 549.761,369.854 557.927,229.866 		
			"/>
		<polygon clip-path="url(#SVGID_2_)" fill="#8BB63F" points="561.001,229.866 552.835,369.854 551.298,369.854 559.464,229.866 		
			"/>
		<polygon clip-path="url(#SVGID_2_)" fill="#8CB63F" points="562.538,229.866 554.372,369.854 552.835,369.854 561.001,229.866 		
			"/>
		<polygon clip-path="url(#SVGID_2_)" fill="#8DB63F" points="564.075,229.866 555.909,369.854 554.372,369.854 562.538,229.866 		
			"/>
		<polygon clip-path="url(#SVGID_2_)" fill="#8DB63F" points="565.611,229.866 557.446,369.854 555.909,369.854 564.075,229.866 		
			"/>
		<polygon clip-path="url(#SVGID_2_)" fill="#8EB73F" points="567.149,229.866 558.983,369.854 557.446,369.854 565.611,229.866 		
			"/>
		<polygon clip-path="url(#SVGID_2_)" fill="#8FB73E" points="568.687,229.866 560.521,369.854 558.983,369.854 567.149,229.866 		
			"/>
		<polygon clip-path="url(#SVGID_2_)" fill="#8FB73E" points="570.223,229.866 562.057,369.854 560.521,369.854 568.687,229.866 		
			"/>
		<polygon clip-path="url(#SVGID_2_)" fill="#90B73E" points="571.761,229.866 563.595,369.854 562.057,369.854 570.223,229.866 		
			"/>
		<polygon clip-path="url(#SVGID_2_)" fill="#91B73E" points="573.297,229.866 565.131,369.854 563.595,369.854 571.761,229.866 		
			"/>
		<polygon clip-path="url(#SVGID_2_)" fill="#91B73E" points="574.834,229.866 566.668,369.854 565.131,369.854 573.297,229.866 		
			"/>
		<polygon clip-path="url(#SVGID_2_)" fill="#92B73E" points="576.371,229.866 568.206,369.854 566.668,369.854 574.834,229.866 		
			"/>
		<polygon clip-path="url(#SVGID_2_)" fill="#92B83E" points="577.908,229.866 569.742,369.854 568.206,369.854 576.371,229.866 		
			"/>
		<polygon clip-path="url(#SVGID_2_)" fill="#93B83E" points="579.445,229.866 571.279,369.854 569.742,369.854 577.908,229.866 		
			"/>
		<polygon clip-path="url(#SVGID_2_)" fill="#93B83E" points="580.982,229.866 572.816,369.854 571.279,369.854 579.445,229.866 		
			"/>
		<polygon clip-path="url(#SVGID_2_)" fill="#94B83D" points="582.52,229.866 574.354,369.854 572.816,369.854 580.982,229.866 		
			"/>
		<polygon clip-path="url(#SVGID_2_)" fill="#94B83D" points="584.056,229.866 575.89,369.854 574.354,369.854 582.52,229.866 		"/>
		<polygon clip-path="url(#SVGID_2_)" fill="#94B83D" points="585.594,229.866 577.428,369.854 575.89,369.854 584.056,229.866 		
			"/>
		<polygon clip-path="url(#SVGID_2_)" fill="#95B83D" points="587.13,229.866 578.965,369.854 577.428,369.854 585.594,229.866 		
			"/>
		<polygon clip-path="url(#SVGID_2_)" fill="#95B83D" points="588.667,229.866 580.501,369.854 578.965,369.854 587.13,229.866 		
			"/>
		<polygon clip-path="url(#SVGID_2_)" fill="#96B93D" points="590.205,229.866 582.039,369.854 580.501,369.854 588.667,229.866 		
			"/>
		<polygon clip-path="url(#SVGID_2_)" fill="#96B93D" points="591.741,229.866 583.575,369.854 582.039,369.854 590.205,229.866 		
			"/>
		<polygon clip-path="url(#SVGID_2_)" fill="#96B93D" points="593.278,229.866 585.112,369.854 583.575,369.854 591.741,229.866 		
			"/>
		<polygon clip-path="url(#SVGID_2_)" fill="#97B93D" points="594.815,229.866 586.649,369.854 585.112,369.854 593.278,229.866 		
			"/>
		<polygon clip-path="url(#SVGID_2_)" fill="#97B93D" points="596.353,229.866 588.187,369.854 586.649,369.854 594.815,229.866 		
			"/>
		<polygon clip-path="url(#SVGID_2_)" fill="#97B93D" points="597.89,229.866 589.724,369.854 588.187,369.854 596.353,229.866 		
			"/>
		<polygon clip-path="url(#SVGID_2_)" fill="#97B93D" points="599.427,229.866 591.261,369.854 589.724,369.854 597.89,229.866 		
			"/>
		<polygon clip-path="url(#SVGID_2_)" fill="#98B93D" points="600.964,229.866 592.798,369.854 591.261,369.854 599.427,229.866 		
			"/>
		<polygon clip-path="url(#SVGID_2_)" fill="#98B93D" points="602.5,229.866 594.334,369.854 592.798,369.854 600.964,229.866 		"/>
		<polygon clip-path="url(#SVGID_2_)" fill="#98B93D" points="604.038,229.866 595.872,369.854 594.334,369.854 602.5,229.866 		"/>
		<polygon clip-path="url(#SVGID_2_)" fill="#98B93C" points="605.574,229.866 597.409,369.854 595.872,369.854 604.038,229.866 		
			"/>
		<polygon clip-path="url(#SVGID_2_)" fill="#98B93C" points="607.111,229.866 598.945,369.854 597.409,369.854 605.574,229.866 		
			"/>
		<polygon clip-path="url(#SVGID_2_)" fill="#98B93C" points="608.649,229.866 600.483,369.854 598.945,369.854 607.111,229.866 		
			"/>
		<polygon clip-path="url(#SVGID_2_)" fill="#99B93C" points="610.186,229.866 602.02,369.854 600.483,369.854 608.649,229.866 		
			"/>
		<polygon clip-path="url(#SVGID_2_)" fill="#99B93C" points="611.723,229.866 603.557,369.854 602.02,369.854 610.186,229.866 		
			"/>
		<polygon clip-path="url(#SVGID_2_)" fill="#99B93C" points="612.75,238.6 605.094,369.854 603.557,369.854 611.723,229.866 
			612.75,229.866 		"/>
		<polygon clip-path="url(#SVGID_2_)" fill="#99B93C" points="612.75,264.956 606.631,369.854 605.094,369.854 612.75,238.6 		"/>
		<polygon clip-path="url(#SVGID_2_)" fill="#99BA3C" points="612.75,291.302 608.168,369.854 606.631,369.854 612.75,264.956 		"/>
		<polygon clip-path="url(#SVGID_2_)" fill="#99BA3C" points="612.75,317.65 609.705,369.854 608.168,369.854 612.75,291.302 		"/>
		<polygon clip-path="url(#SVGID_2_)" fill="#99BA3C" points="612.75,344.006 611.242,369.854 609.705,369.854 612.75,317.65 		"/>
		<polygon clip-path="url(#SVGID_2_)" fill="#99BA3C" points="611.242,369.854 612.75,344.006 612.75,369.854 		"/>
	</g>
</g>
<g>
	<path fill="#2E3192" d="M632.647,266.745c-0.513,1.532-1.252,3.091-2.229,4.681c-2.062,3.348-5.006,6.695-8.834,10.041
		c-3.831,3.348-8.496,6.55-14,9.606c-5.503,3.058-11.698,5.841-18.585,8.352c6.822,2.253,12.373,4.618,16.654,7.096
		c4.28,2.479,7.627,5.054,10.041,7.724c2.413,2.672,4.038,5.44,4.876,8.303c0.835,2.865,1.255,5.81,1.255,8.834
		c0,4.441-1.224,8.819-3.669,13.131c-2.447,4.313-5.841,8.384-10.186,12.213c-4.345,3.83-9.495,7.371-15.447,10.62
		c-5.954,3.251-12.439,6.051-19.454,8.399c-7.017,2.351-14.419,4.184-22.205,5.504c-7.788,1.318-15.674,1.979-23.654,1.979
		c-2.833,0-5.695-0.161-8.592-0.482c-0.063-0.007-0.121-0.018-0.183-0.024c13,8.431,28.502,13.33,45.15,13.33
		c45.891,0,83.092-37.202,83.092-83.092C646.678,295.854,641.508,279.959,632.647,266.745z"/>
</g>
<g>
	<path fill="#3F4BA0" d="M130.195,318.312v-73.391h26.715c8.188,0,14.483,1.502,18.885,4.504c4.401,3.003,6.602,7.233,6.602,12.692
		c0,3.958-1.339,7.421-4.018,10.389c-2.679,2.969-6.099,5.033-10.261,6.193v0.204c5.22,0.648,9.392,2.577,12.513,5.783
		c3.122,3.208,4.683,7.114,4.683,11.721c0,6.722-2.406,12.053-7.216,15.993c-4.811,3.94-11.379,5.911-19.704,5.911H130.195z
		 M146.726,257.102v17.4h7.268c3.411,0,6.098-0.826,8.061-2.481c1.961-1.655,2.943-3.933,2.943-6.833
		c0-5.391-4.026-8.086-12.078-8.086H146.726z M146.726,286.785v19.346h8.957c3.821,0,6.814-0.887,8.981-2.661
		c2.167-1.773,3.25-4.197,3.25-7.268c0-2.934-1.067-5.237-3.199-6.909c-2.133-1.671-5.11-2.508-8.931-2.508H146.726z"/>
	<path fill="#3F4BA0" d="M237.649,296.714h-34.188c0.545,7.609,5.339,11.413,14.381,11.413c5.766,0,10.832-1.364,15.2-4.095v11.669
		c-4.845,2.594-11.14,3.89-18.885,3.89c-8.462,0-15.03-2.346-19.704-7.037c-4.675-4.69-7.011-11.233-7.011-19.627
		c0-8.7,2.524-15.592,7.574-20.677c5.049-5.083,11.259-7.625,18.629-7.625c7.643,0,13.554,2.27,17.733,6.807
		c4.179,4.538,6.27,10.696,6.27,18.476V296.714z M222.654,286.785c0-7.506-3.037-11.259-9.11-11.259
		c-2.593,0-4.836,1.074-6.73,3.224c-1.894,2.149-3.045,4.828-3.454,8.035H222.654z"/>
	<path fill="#3F4BA0" d="M257.691,300.553c0,2.218,0.529,3.898,1.586,5.041c1.057,1.144,2.474,1.714,4.248,1.714
		c0.887,0,1.773-0.084,2.661-0.256c0.887-0.17,1.774-0.34,2.661-0.512v11.362c-1.944,0.512-4,0.929-6.167,1.254
		c-2.167,0.323-4.427,0.486-6.781,0.486c-2.15,0-4.103-0.358-5.86-1.075c-1.758-0.717-3.259-1.748-4.504-3.097
		c-1.246-1.347-2.209-2.976-2.892-4.887c-0.683-1.911-1.023-4.061-1.023-6.449v-63.41h16.07V300.553z"/>
	<path fill="#3F4BA0" d="M278.244,257.613c-2.73,0-4.964-0.811-6.705-2.431s-2.61-3.608-2.61-5.963c0-2.422,0.87-4.401,2.61-5.937
		s3.975-2.303,6.705-2.303c2.764,0,5.006,0.768,6.73,2.303c1.722,1.535,2.584,3.515,2.584,5.937c0,2.457-0.862,4.471-2.584,6.039
		C283.25,256.829,281.008,257.613,278.244,257.613z M286.074,300.553c0,2.218,0.529,3.898,1.586,5.041
		c1.057,1.144,2.474,1.714,4.248,1.714c0.887,0,1.773-0.084,2.661-0.256c0.887-0.17,1.774-0.34,2.661-0.512v11.362
		c-1.944,0.512-4,0.929-6.167,1.254c-2.167,0.323-4.427,0.486-6.781,0.486c-2.15,0-4.103-0.358-5.86-1.075
		c-1.758-0.717-3.259-1.748-4.504-3.097c-1.246-1.347-2.209-2.976-2.892-4.887c-0.683-1.911-1.023-4.061-1.023-6.449v-38.23h16.07
		V300.553z"/>
	<path fill="#3F4BA0" d="M345.882,296.714h-34.188c0.545,7.609,5.339,11.413,14.381,11.413c5.766,0,10.832-1.364,15.2-4.095v11.669
		c-4.845,2.594-11.14,3.89-18.885,3.89c-8.462,0-15.03-2.346-19.704-7.037c-4.675-4.69-7.011-11.233-7.011-19.627
		c0-8.7,2.524-15.592,7.574-20.677c5.049-5.083,11.259-7.625,18.629-7.625c7.643,0,13.554,2.27,17.733,6.807
		c4.179,4.538,6.27,10.696,6.27,18.476V296.714z M330.886,286.785c0-7.506-3.037-11.259-9.11-11.259
		c-2.593,0-4.836,1.074-6.73,3.224c-1.894,2.149-3.045,4.828-3.454,8.035H330.886z"/>
	<path fill="#3F4BA0" d="M400.161,265.904l-19.499,52.407h-18.424l-18.578-52.407h17.298l9.11,32.294
		c1.023,3.651,1.62,6.756,1.791,9.314h0.205c0.238-2.422,0.87-5.425,1.894-9.008l9.314-32.601H400.161z"/>
	<path fill="#3F4BA0" d="M448.914,296.714h-34.187c0.545,7.609,5.339,11.413,14.381,11.413c5.766,0,10.832-1.364,15.2-4.095v11.669
		c-4.846,2.594-11.141,3.89-18.885,3.89c-8.463,0-15.03-2.346-19.704-7.037c-4.675-4.69-7.012-11.233-7.012-19.627
		c0-8.7,2.524-15.592,7.574-20.677c5.05-5.083,11.26-7.625,18.63-7.625c7.642,0,13.553,2.27,17.732,6.807
		c4.18,4.538,6.27,10.696,6.27,18.476V296.714z M433.919,286.785c0-7.506-3.037-11.259-9.109-11.259
		c-2.594,0-4.837,1.074-6.73,3.224s-3.045,4.828-3.454,8.035H433.919z"/>
</g>
<g>
	<circle fill="#3F4BA0" cx="612.75" cy="211.045" r="19.908"/>
</g>
</svg>
