<?xml version="1.0" encoding="utf-8"?>
<!-- Generator: Adobe Illustrator 15.0.0, SVG Export Plug-In . SVG Version: 6.00 Build 0)  -->
<!DOCTYPE svg PUBLIC "-//W3C//DTD SVG 1.1//EN" "http://www.w3.org/Graphics/SVG/1.1/DTD/svg11.dtd">
<svg version="1.1" id="Layer_1" xmlns="http://www.w3.org/2000/svg" xmlns:xlink="http://www.w3.org/1999/xlink" x="0px" y="0px"
	 width="792px" height="612px" viewBox="0 0 792 612" enable-background="new 0 0 792 612" xml:space="preserve">
<path fill="#2E3192" d="M427.482,399.32c7.586-4.583,13.545-9.726,17.876-15.432c4.329-5.704,6.493-11.713,6.493-18.029
	c0-2.851-0.637-5.856-1.909-9.016c-1.274-3.156-3.438-6.314-6.493-9.473c-3.057-3.156-7.182-6.265-12.377-9.32
	c-5.195-3.057-11.715-5.856-19.557-8.404c-4.584,10.391-8.889,19.711-12.912,27.962c-4.024,8.251-7.818,15.813-11.383,22.689
	c-3.566,6.876-6.951,13.293-10.16,19.252s-6.341,11.791-9.396,17.495c11.814-1.018,22.842-3.08,33.079-6.188
	C410.98,407.751,419.893,403.904,427.482,399.32z"/>
<linearGradient id="SVGID_1_" gradientUnits="userSpaceOnUse" x1="240.8389" y1="309.3945" x2="480.8385" y2="323.3945">
	<stop  offset="0" style="stop-color:#00A14B"/>
	<stop  offset="0.0228" style="stop-color:#12A24B"/>
	<stop  offset="0.2086" style="stop-color:#59AA47"/>
	<stop  offset="0.3983" style="stop-color:#78B143"/>
	<stop  offset="0.5911" style="stop-color:#8BB63F"/>
	<stop  offset="0.7891" style="stop-color:#95B93D"/>
	<stop  offset="1" style="stop-color:#99BA3C"/>
</linearGradient>
<path fill="url(#SVGID_1_)" d="M305.478,421.323c1.833-1.12,4.71-2.063,8.633-2.827c3.92-0.764,9.55-1.146,16.884-1.146
	c12.731-23.325,23.248-43.418,31.551-60.277c8.301-16.857,15.254-30.735,20.856-41.637c5.601-10.898,10.313-18.946,14.134-24.141
	c3.819-5.195,7.563-7.793,11.23-7.793c1.627,0,3.208,0.256,4.736,0.765c1.527,0.511,2.877,1.198,4.049,2.063
	c1.17,0.866,2.112,1.936,2.826,3.208c0.711,1.275,1.07,2.674,1.07,4.202c-0.816,1.02-1.275,2.063-1.375,3.133
	c-0.104,1.069-0.153,2.268-0.153,3.59c9.064-3.667,17.01-7.434,23.835-11.307c6.824-3.87,12.529-7.716,17.113-11.536
	c4.584-3.819,8.045-7.511,10.39-11.077c2.343-3.564,3.515-6.823,3.515-9.778c0-1.018-0.512-2.189-1.528-3.515
	c-1.02-1.322-2.573-2.545-4.66-3.667c-2.089-1.12-4.713-2.063-7.868-2.827c-3.159-0.764-6.826-1.146-11.002-1.146
	c-11.206,0-21.596,1.352-31.17,4.049c-9.575,2.7-18.284,5.985-26.127,9.855c-7.845,3.872-14.771,7.921-20.779,12.147
	c-6.012,4.228-11.054,7.921-15.127,11.077c-2.547,1.937-4.763,3.846-6.646,5.729c-1.886,1.886-3.719,3.567-5.5,5.042
	c-1.783,1.479-3.693,2.674-5.73,3.591c-2.038,0.917-4.482,1.375-7.334,1.375c-4.277,0-7.615-1.017-10.008-3.056
	c-2.395-2.036-3.59-4.89-3.59-8.557c0-4.378,1.73-9.038,5.194-13.98c3.462-4.939,8.251-9.855,14.362-14.744
	c6.112-4.89,13.293-9.55,21.544-13.98c8.251-4.432,17.137-8.328,26.663-11.689c9.522-3.361,19.454-6.059,29.794-8.098
	c10.337-2.036,20.703-3.056,31.093-3.056c5.459,0,10.528,0.229,15.218,0.68c-19.081-10.784-41.122-16.946-64.604-16.946
	c-72.625,0-131.5,58.875-131.5,131.5c0,34.841,13.557,66.513,35.674,90.042c0.258-0.554,0.531-1.159,0.824-1.831
	C302.472,423.591,303.645,422.445,305.478,421.323z"/>
<path fill="#2E3192" d="M506.262,263.413c-0.813,2.425-1.982,4.893-3.529,7.408c-3.262,5.298-7.922,10.596-13.98,15.891
	c-6.063,5.298-13.446,10.366-22.155,15.203c-8.709,4.839-18.515,9.244-29.413,13.217c10.797,3.566,19.582,7.31,26.357,11.229
	c6.773,3.923,12.07,7.998,15.891,12.224c3.819,4.229,6.391,8.609,7.716,13.141c1.322,4.533,1.986,9.193,1.986,13.98
	c0,7.028-1.937,13.957-5.806,20.78c-3.873,6.825-9.244,13.269-16.12,19.328c-6.876,6.062-15.026,11.665-24.446,16.808
	c-9.424,5.145-19.688,9.575-30.788,13.293c-11.104,3.72-22.819,6.62-35.142,8.709c-12.326,2.087-24.806,3.132-37.435,3.132
	c-4.483,0-9.015-0.255-13.599-0.764c-0.098-0.011-0.19-0.028-0.288-0.039c20.573,13.343,45.106,21.097,71.454,21.097
	c72.626,0,131.5-58.875,131.5-131.5C528.465,309.481,520.283,284.325,506.262,263.413z"/>
<circle fill="#3F4BA0" cx="474.771" cy="175.263" r="31.506"/>
</svg>
